<svg width="33" height="29" viewBox="0 0 33 29" fill="none" xmlns="http://www.w3.org/2000/svg">
<path d="M17 6.97961H4C3.13805 6.97961 2.3114 7.32202 1.7019 7.93152C1.09241 8.54101 0.75 9.36766 0.75 10.2296V16.7296C0.75 17.5916 1.09241 18.4182 1.7019 19.0277C2.3114 19.6372 3.13805 19.9796 4 19.9796H5.625V26.4796C5.625 26.9106 5.79621 27.3239 6.10095 27.6287C6.4057 27.9334 6.81902 28.1046 7.25 28.1046H10.5C10.931 28.1046 11.3443 27.9334 11.649 27.6287C11.9538 27.3239 12.125 26.9106 12.125 26.4796V19.9796H17L25.125 26.4796V0.479614L17 6.97961ZM32.4375 13.4796C32.4375 16.2584 30.8775 18.7771 28.375 19.9796V6.97961C30.8612 8.19836 32.4375 10.7171 32.4375 13.4796Z" fill="white"/>
</svg>
