<svg width="60" height="60" viewBox="0 0 60 60" fill="none" xmlns="http://www.w3.org/2000/svg">
<path d="M44.07 34.509C47.07 34.509 49.5 36.939 49.5 39.939V42.006H49.485C49.383 44.346 48.741 47.277 46.116 49.671C43.248 52.29 38.295 54 30 54C21.702 54 16.752 52.29 13.884 49.671C11.259 47.277 10.617 44.343 10.515 42.006H10.5V39.936C10.5 36.939 12.93 34.509 15.93 34.509H44.07ZM19.5 9C18.3065 9 17.1619 9.47411 16.318 10.318C15.4741 11.1619 15 12.3065 15 13.5V25.5C15 26.6935 15.4741 27.8381 16.318 28.682C17.1619 29.5259 18.3065 30 19.5 30H40.5C41.6935 30 42.8381 29.5259 43.682 28.682C44.5259 27.8381 45 26.6935 45 25.5V13.5C45 12.3065 44.5259 11.1619 43.682 10.318C42.8381 9.47411 41.6935 9 40.5 9H31.5V7.5C31.5085 7.30075 31.4755 7.10191 31.4031 6.91608C31.3307 6.73025 31.2206 6.56148 31.0795 6.42046C30.9385 6.27944 30.7697 6.16926 30.5839 6.09688C30.3981 6.0245 30.1992 5.99151 30 6C29.172 6 28.5 6.69 28.5 7.5V9H19.5ZM21 19.5C21 18.7044 21.3161 17.9413 21.8787 17.3787C22.4413 16.8161 23.2043 16.5 24 16.5C24.7956 16.5 25.5587 16.8161 26.1213 17.3787C26.6839 17.9413 27 18.7044 27 19.5C27 20.2957 26.6839 21.0587 26.1213 21.6213C25.5587 22.1839 24.7956 22.5 24 22.5C23.2043 22.5 22.4413 22.1839 21.8787 21.6213C21.3161 21.0587 21 20.2957 21 19.5ZM33 19.5C33 18.7044 33.3161 17.9413 33.8787 17.3787C34.4413 16.8161 35.2043 16.5 36 16.5C36.7956 16.5 37.5587 16.8161 38.1213 17.3787C38.6839 17.9413 39 18.7044 39 19.5C39 20.2957 38.6839 21.0587 38.1213 21.6213C37.5587 22.1839 36.7956 22.5 36 22.5C35.2043 22.5 34.4413 22.1839 33.8787 21.6213C33.3161 21.0587 33 20.2957 33 19.5Z" fill="white"/>
</svg>
