<svg width="39" height="40" viewBox="0 0 39 40" fill="none" xmlns="http://www.w3.org/2000/svg">
<path d="M9.854 9.50113C9.96428 9.38154 10.0495 9.24108 10.1046 9.08804C10.1598 8.935 10.1837 8.77247 10.1751 8.61003C10.1664 8.44759 10.1253 8.28852 10.0542 8.14221C9.9831 7.9959 9.88342 7.86531 9.76105 7.75813C9.63868 7.65095 9.49609 7.56935 9.34169 7.51814C9.18729 7.46693 9.0242 7.44715 8.86203 7.45996C8.69987 7.47278 8.54191 7.51793 8.39746 7.59275C8.25302 7.66757 8.12502 7.77056 8.021 7.89563L5.17725 11.1456C4.98275 11.3678 4.87553 11.6531 4.87553 11.9484C4.87553 12.2437 4.98275 12.5289 5.17725 12.7511L8.021 16.0011C8.23646 16.2348 8.53468 16.375 8.85206 16.3919C9.16945 16.4089 9.48088 16.3011 9.71997 16.0917C9.95906 15.8823 10.1069 15.5878 10.1319 15.2709C10.157 14.9541 10.0572 14.64 9.854 14.3956L8.77988 13.1671H13.4306C13.7539 13.1671 14.0639 13.0387 14.2924 12.8102C14.521 12.5816 14.6494 12.2716 14.6494 11.9484C14.6494 11.6251 14.521 11.3152 14.2924 11.0866C14.0639 10.858 13.7539 10.7296 13.4306 10.7296H8.77988L9.854 9.50113ZM29.2841 7.78188C29.0411 7.99484 28.8927 8.29556 28.8713 8.61795C28.85 8.94034 28.9576 9.25801 29.1704 9.50113L30.2429 10.7296H25.5954C25.2721 10.7296 24.9622 10.858 24.7336 11.0866C24.505 11.3152 24.3766 11.6251 24.3766 11.9484C24.3766 12.2716 24.505 12.5816 24.7336 12.8102C24.9622 13.0387 25.2721 13.1671 25.5954 13.1671H30.2429L29.1704 14.3956C28.9671 14.64 28.8674 14.9541 28.8925 15.2709C28.9175 15.5878 29.0653 15.8823 29.3044 16.0917C29.5435 16.3011 29.8549 16.4089 30.1723 16.3919C30.4897 16.375 30.7879 16.2348 31.0034 16.0011L33.8471 12.7511C34.0416 12.5289 34.1488 12.2437 34.1488 11.9484C34.1488 11.6531 34.0416 11.3678 33.8471 11.1456L31.0034 7.89563C30.7904 7.65265 30.4897 7.50418 30.1673 7.48285C29.8449 7.46152 29.5272 7.56907 29.2841 7.78188ZM9.34375 18.8546C8.15856 18.8546 7.02192 19.3254 6.18387 20.1635C5.34581 21.0015 4.875 22.1382 4.875 23.3234V29.8234C4.875 31.0086 5.34581 32.1452 6.18387 32.9833C7.02192 33.8213 8.15856 34.2921 9.34375 34.2921H29.6563C30.8414 34.2921 31.9781 33.8213 32.8161 32.9833C33.6542 32.1452 34.125 31.0086 34.125 29.8234V23.3234C34.125 22.1382 33.6542 21.0015 32.8161 20.1635C31.9781 19.3254 30.8414 18.8546 29.6563 18.8546H9.34375ZM9.75 26.5734C9.75 26.2501 9.8784 25.9402 10.107 25.7116C10.3355 25.483 10.6455 25.3546 10.9688 25.3546H28.0313C28.3545 25.3546 28.6645 25.483 28.893 25.7116C29.1216 25.9402 29.25 26.2501 29.25 26.5734C29.25 26.8966 29.1216 27.2066 28.893 27.4352C28.6645 27.6637 28.3545 27.7921 28.0313 27.7921H10.9688C10.6455 27.7921 10.3355 27.6637 10.107 27.4352C9.8784 27.2066 9.75 26.8966 9.75 26.5734Z" fill="white"/>
</svg>
