<svg width="42" height="41" viewBox="0 0 42 41" fill="none" xmlns="http://www.w3.org/2000/svg">
<path d="M21.4183 41C18.9887 41 16.6919 40.6014 14.5281 39.8042C12.3642 39.0069 10.4091 37.906 8.66278 36.5014L5.75861 39.4056C5.30306 39.8611 4.77158 40.0798 4.16417 40.0616C3.55676 40.0433 3.02528 39.8057 2.56972 39.3486C2.11417 38.8931 1.88639 38.3525 1.88639 37.7268C1.88639 37.1012 2.11417 36.5599 2.56972 36.1028L5.41694 33.2556C4.01232 31.5093 2.91139 29.5451 2.11417 27.3629C1.31695 25.1808 0.918335 22.8932 0.918335 20.5C0.918335 14.8056 2.92126 9.96528 6.92711 5.97917C10.933 1.99306 15.7634 0 21.4183 0H37.3628C38.6156 0 39.6884 0.446445 40.5813 1.33933C41.4742 2.23222 41.9198 3.3043 41.9183 4.55556V20.5C41.9183 26.1565 39.9253 30.9876 35.9392 34.9935C31.9531 38.9994 27.1128 41.0015 21.4183 41ZM18.4003 31.6042L30.1878 21.0694C30.5674 20.7278 30.6813 20.3201 30.5294 19.8463C30.3776 19.3725 30.0359 19.0969 29.5044 19.0194L20.2794 18.1083L25.8031 10.5347C25.9549 10.3449 26.0217 10.146 26.0035 9.93794C25.9853 9.72991 25.8995 9.53022 25.7461 9.33889C25.5563 9.14907 25.3376 9.05417 25.0901 9.05417C24.8426 9.05417 24.6247 9.14907 24.4364 9.33889L12.7058 19.8736C12.3262 20.2153 12.2123 20.6238 12.3642 21.0991C12.516 21.5744 12.8577 21.8492 13.3892 21.9236L22.6142 22.8347L17.0336 30.4083C16.9197 30.5981 16.8628 30.7978 16.8628 31.0074C16.8628 31.2169 16.9577 31.4159 17.1475 31.6042C17.3373 31.794 17.5461 31.8889 17.7739 31.8889C18.0017 31.8889 18.2105 31.794 18.4003 31.6042Z" fill="white"/>
</svg>
