<svg width="40" height="40" viewBox="0 0 40 40" fill="none" xmlns="http://www.w3.org/2000/svg">
<g clip-path="url(#clip0_1_52322)">
<path d="M20 39.9796C16.7229 37.19 14.2789 34.6036 12.668 32.2202C11.0571 29.8369 10.2511 27.6296 10.25 25.5984C10.25 22.8088 11.1979 20.446 13.0937 18.5101C14.9896 16.5742 17.2916 15.6057 20 15.6046C22.7083 15.6046 25.0104 16.5731 26.9062 18.5101C28.8021 20.4471 29.75 22.8099 29.75 25.5984C29.75 27.6296 28.944 29.8369 27.332 32.2202C25.72 34.6036 23.276 37.19 20 39.9796ZM20 27.7921C20.6771 27.7921 21.2528 27.5549 21.7273 27.0804C22.2018 26.6059 22.4386 26.0306 22.4375 25.3546C22.4375 24.6775 22.2002 24.1017 21.7257 23.6272C21.2512 23.1527 20.676 22.916 20 22.9171C19.3229 22.9171 18.7471 23.1544 18.2726 23.6289C17.7981 24.1034 17.5614 24.6786 17.5625 25.3546C17.5625 26.0317 17.7997 26.6075 18.2742 27.082C18.7487 27.5565 19.324 27.7932 20 27.7921ZM14.2312 13.0859L11.9562 10.8109C13.0396 9.72753 14.2654 8.90149 15.6336 8.33274C17.0019 7.76399 18.4573 7.47961 20 7.47961C21.5437 7.47961 22.9997 7.76399 24.368 8.33274C25.7362 8.90149 26.9615 9.72753 28.0437 10.8109L25.7687 13.0859C25.0104 12.3275 24.1367 11.7452 23.1476 11.339C22.1585 10.9327 21.1093 10.7296 20 10.7296C18.8896 10.7296 17.8398 10.9327 16.8507 11.339C15.8616 11.7452 14.9885 12.3275 14.2312 13.0859ZM9.68123 8.49524L7.3656 6.22024C9.07185 4.51399 11.0083 3.21399 13.175 2.32024C15.3416 1.42649 17.6166 0.979614 20 0.979614C22.3833 0.979614 24.6583 1.42649 26.825 2.32024C28.9916 3.21399 30.9281 4.51399 32.6343 6.22024L30.3594 8.53586C28.9781 7.15461 27.3937 6.09132 25.6062 5.34599C23.8187 4.60066 21.95 4.22853 20 4.22961C18.05 4.22961 16.1877 4.59524 14.4132 5.32649C12.6387 6.05774 11.0614 7.11399 9.68123 8.49524Z" fill="white"/>
</g>
<defs>
<clipPath id="clip0_1_52322">
<rect width="39" height="39" fill="white" transform="translate(0.5 0.979614)"/>
</clipPath>
</defs>
</svg>
