<svg width="32" height="28" viewBox="0 0 32 28" fill="none" xmlns="http://www.w3.org/2000/svg">
<path d="M1.57729 6.41891H26.2828C26.8078 6.41891 27.233 5.99633 27.233 5.4746V1.69736C27.233 1.17563 26.8078 0.753052 26.2828 0.753052H1.57729C1.05229 0.753052 0.627075 1.17563 0.627075 1.69736V5.4746C0.627075 5.99633 1.05229 6.41891 1.57729 6.41891ZM30.0836 11.1405H5.37813C4.85314 11.1405 4.42792 11.563 4.42792 12.0848V15.862C4.42792 16.3837 4.85314 16.8063 5.37813 16.8063H30.0836C30.6086 16.8063 31.0339 16.3837 31.0339 15.862V12.0848C31.0339 11.563 30.6086 11.1405 30.0836 11.1405ZM26.2828 21.5279H1.57729C1.05229 21.5279 0.627075 21.9504 0.627075 22.4722V26.2494C0.627075 26.7712 1.05229 27.1937 1.57729 27.1937H26.2828C26.8078 27.1937 27.233 26.7712 27.233 26.2494V22.4722C27.233 21.9504 26.8078 21.5279 26.2828 21.5279Z" fill="white"/>
</svg>
