<svg width="61" height="60" viewBox="0 0 61 60" fill="none" xmlns="http://www.w3.org/2000/svg">
<g clip-path="url(#clip0_1_52370)">
<path fill-rule="evenodd" clip-rule="evenodd" d="M56.5 50V40H58.22C58.8247 40 59.4046 39.7598 59.8322 39.3322C60.2598 38.9046 60.5 38.3247 60.5 37.72V22.28C60.5 21.6753 60.2598 21.0954 59.8322 20.6678C59.4046 20.2402 58.8247 20 58.22 20H56.5V10C56.5 8.4087 55.8679 6.88258 54.7426 5.75736C53.6174 4.63214 52.0913 4 50.5 4H6.5C4.9087 4 3.38258 4.63214 2.25736 5.75736C1.13214 6.88258 0.5 8.4087 0.5 10L0.5 50C0.5 51.5913 1.13214 53.1174 2.25736 54.2426C3.38258 55.3679 4.9087 56 6.5 56H50.5C52.0913 56 53.6174 55.3679 54.7426 54.2426C55.8679 53.1174 56.5 51.5913 56.5 50ZM56.5 24V36H38.5C36.9087 36 35.3826 35.3679 34.2574 34.2426C33.1321 33.1174 32.5 31.5913 32.5 30C32.5 28.4087 33.1321 26.8826 34.2574 25.7574C35.3826 24.6321 36.9087 24 38.5 24H56.5Z" fill="white"/>
</g>
<defs>
<clipPath id="clip0_1_52370">
<rect width="60" height="60" fill="white" transform="translate(0.5)"/>
</clipPath>
</defs>
</svg>
