<svg width="16" height="15" viewBox="0 0 16 15" fill="none" xmlns="http://www.w3.org/2000/svg">
<path d="M16.0329 8.50924C16.0329 10.2455 15.4802 11.8539 14.5416 13.1661L12.9263 9.29087C10.6549 8.40359 8.66599 9.44628 6.6304 11.315L3.02236 14.7791C2.62121 14.4591 2.25069 14.1008 1.91767 13.7104L6.1037 9.69202C8.08571 7.87307 10.0248 6.83575 12.222 7.60283L10.9948 4.65852C10.6779 3.93431 10.2981 3.31651 9.81738 2.87938C9.33585 2.44225 8.75327 2.18656 8.02906 2.18656C6.57987 2.18656 5.75384 3.19173 5.09853 4.65852L1.51116 13.1921C0.56035 11.8746 0.000732422 10.257 0.000732422 8.50924C0.000732422 4.08206 3.5904 0.493164 8.01681 0.493164C12.4432 0.493164 16.0329 4.08206 16.0329 8.50924Z" fill="url(#paint0_linear_538_7578)"/>
<defs>
<linearGradient id="paint0_linear_538_7578" x1="0.000732422" y1="7.63651" x2="16.0329" y2="7.63651" gradientUnits="userSpaceOnUse">
<stop stop-color="#7A2A90"/>
<stop offset="1" stop-color="#26489E"/>
</linearGradient>
</defs>
</svg>
