<svg width="29" height="29" viewBox="0 0 29 29" fill="none" xmlns="http://www.w3.org/2000/svg">
<path d="M16.2275 11.9229C15.5733 11.9229 15.0664 12.4298 15.0664 13.0557C15.0664 13.6815 15.5733 14.1885 16.2275 14.1885C16.8251 14.1885 17.332 13.6815 17.332 13.0557C17.332 12.4298 16.8251 11.9229 16.2275 11.9229ZM8.29785 11.9229C7.64365 11.9229 7.13672 12.4298 7.13672 13.0557C7.13672 13.6815 7.64365 14.1885 8.29785 14.1885C8.89541 14.1885 9.40234 13.6815 9.40234 13.0557C9.40234 12.4298 8.89541 11.9229 8.29785 11.9229Z" fill="#5C5C5C"/>
<path d="M16.2275 11.9229C15.5733 11.9229 15.0664 12.4298 15.0664 13.0557C15.0664 13.6815 15.5733 14.1885 16.2275 14.1885C16.8251 14.1885 17.332 13.6815 17.332 13.0557C17.332 12.4298 16.8251 11.9229 16.2275 11.9229ZM8.29785 11.9229C7.64365 11.9229 7.13672 12.4298 7.13672 13.0557C7.13672 13.6815 7.64365 14.1885 8.29785 14.1885C8.89541 14.1885 9.40234 13.6815 9.40234 13.0557C9.40234 12.4298 8.89541 11.9229 8.29785 11.9229Z" fill="#E5E5E5"/>
<path d="M25.3185 9.77031C23.9563 7.90117 22.0531 6.65224 19.9659 6.08867V6.0915C19.4817 5.55342 18.9351 5.05781 18.3234 4.61601C13.6873 1.2459 7.17931 2.27392 3.79503 6.90996C1.06779 10.6766 1.1839 15.7431 3.96495 19.3426L3.98761 23.0978C3.98761 23.1885 4.00177 23.2791 4.03009 23.3641C4.18019 23.8427 4.68995 24.1061 5.16574 23.956L8.75109 22.826C9.69982 23.163 10.6797 23.3556 11.6539 23.4094L11.6398 23.4207C14.1631 25.2587 17.4709 25.8109 20.504 24.8084L24.1035 25.9809C24.1942 26.0092 24.2876 26.0262 24.3839 26.0262C24.8852 26.0262 25.2901 25.6212 25.2901 25.1199V21.325C27.7852 17.9379 27.8503 13.2565 25.3185 9.77031ZM9.14757 20.8152L8.80773 20.6736L6.00402 21.5516L5.9757 18.6062L5.74913 18.3514C3.35324 15.4287 3.19464 11.2175 5.43761 8.12773C8.16769 4.38379 13.4013 3.55683 17.1339 6.25859C20.8778 8.98017 21.7076 14.2053 19.003 17.9266C16.7346 21.039 12.6735 22.1888 9.14757 20.8152ZM23.4493 20.3338L23.2228 20.617L23.2511 23.5623L20.4757 22.6277L20.1359 22.7693C18.5499 23.3584 16.8592 23.4065 15.2931 22.9676L15.2874 22.9647C17.3803 22.3219 19.2777 21.0191 20.6456 19.1443C22.8093 16.1622 23.1605 12.4154 21.903 9.2209L21.92 9.23222C22.5714 9.69951 23.169 10.2829 23.6759 10.9881C25.7319 13.8088 25.6158 17.649 23.4493 20.3338Z" fill="#5C5C5C"/>
<path d="M25.3185 9.77031C23.9563 7.90117 22.0531 6.65224 19.9659 6.08867V6.0915C19.4817 5.55342 18.9351 5.05781 18.3234 4.61601C13.6873 1.2459 7.17931 2.27392 3.79503 6.90996C1.06779 10.6766 1.1839 15.7431 3.96495 19.3426L3.98761 23.0978C3.98761 23.1885 4.00177 23.2791 4.03009 23.3641C4.18019 23.8427 4.68995 24.1061 5.16574 23.956L8.75109 22.826C9.69982 23.163 10.6797 23.3556 11.6539 23.4094L11.6398 23.4207C14.1631 25.2587 17.4709 25.8109 20.504 24.8084L24.1035 25.9809C24.1942 26.0092 24.2876 26.0262 24.3839 26.0262C24.8852 26.0262 25.2901 25.6212 25.2901 25.1199V21.325C27.7852 17.9379 27.8503 13.2565 25.3185 9.77031ZM9.14757 20.8152L8.80773 20.6736L6.00402 21.5516L5.9757 18.6062L5.74913 18.3514C3.35324 15.4287 3.19464 11.2175 5.43761 8.12773C8.16769 4.38379 13.4013 3.55683 17.1339 6.25859C20.8778 8.98017 21.7076 14.2053 19.003 17.9266C16.7346 21.039 12.6735 22.1888 9.14757 20.8152ZM23.4493 20.3338L23.2228 20.617L23.2511 23.5623L20.4757 22.6277L20.1359 22.7693C18.5499 23.3584 16.8592 23.4065 15.2931 22.9676L15.2874 22.9647C17.3803 22.3219 19.2777 21.0191 20.6456 19.1443C22.8093 16.1622 23.1605 12.4154 21.903 9.2209L21.92 9.23222C22.5714 9.69951 23.169 10.2829 23.6759 10.9881C25.7319 13.8088 25.6158 17.649 23.4493 20.3338Z" fill="#E5E5E5"/>
<path d="M12.2627 11.9229C11.6085 11.9229 11.1016 12.4298 11.1016 13.0557C11.1016 13.6815 11.6085 14.1885 12.2627 14.1885C12.8603 14.1885 13.3672 13.6815 13.3672 13.0557C13.3672 12.4298 12.8603 11.9229 12.2627 11.9229Z" fill="#5C5C5C"/>
<path d="M12.2627 11.9229C11.6085 11.9229 11.1016 12.4298 11.1016 13.0557C11.1016 13.6815 11.6085 14.1885 12.2627 14.1885C12.8603 14.1885 13.3672 13.6815 13.3672 13.0557C13.3672 12.4298 12.8603 11.9229 12.2627 11.9229Z" fill="#E5E5E5"/>
</svg>
