<svg width="38" height="38" viewBox="0 0 38 38" fill="none" xmlns="http://www.w3.org/2000/svg">
<path d="M23.75 19C23.75 19.9395 23.4714 20.8578 22.9495 21.639C22.4275 22.4201 21.6857 23.0289 20.8177 23.3884C19.9498 23.7479 18.9947 23.842 18.0733 23.6587C17.1519 23.4755 16.3055 23.0231 15.6412 22.3588C14.9769 21.6945 14.5245 20.8481 14.3413 19.9267C14.158 19.0053 14.2521 18.0502 14.6116 17.1823C14.9711 16.3143 15.5799 15.5725 16.361 15.0505C17.1422 14.5286 18.0605 14.25 19 14.25C20.2586 14.2539 21.4645 14.7556 22.3544 15.6456C23.2444 16.5355 23.7461 17.7414 23.75 19ZM33.8438 12.4688V25.5312C33.8438 27.7359 32.968 29.8502 31.4091 31.4091C29.8502 32.968 27.7359 33.8438 25.5312 33.8438H12.4688C10.2641 33.8438 8.14982 32.968 6.59092 31.4091C5.03203 29.8502 4.15625 27.7359 4.15625 25.5312V12.4688C4.15625 10.2641 5.03203 8.14982 6.59092 6.59092C8.14982 5.03203 10.2641 4.15625 12.4688 4.15625H25.5312C27.7359 4.15625 29.8502 5.03203 31.4091 6.59092C32.968 8.14982 33.8438 10.2641 33.8438 12.4688ZM26.125 19C26.125 17.5908 25.7071 16.2133 24.9242 15.0416C24.1413 13.8699 23.0285 12.9566 21.7266 12.4174C20.4247 11.8781 18.9921 11.737 17.61 12.0119C16.2279 12.2868 14.9583 12.9654 13.9619 13.9619C12.9654 14.9583 12.2868 16.2279 12.0119 17.61C11.737 18.9921 11.8781 20.4247 12.4174 21.7266C12.9566 23.0285 13.8699 24.1413 15.0416 24.9242C16.2133 25.7071 17.5908 26.125 19 26.125C20.8897 26.125 22.7019 25.3743 24.0381 24.0381C25.3743 22.7019 26.125 20.8897 26.125 19ZM28.5 11.2812C28.5 10.929 28.3955 10.5846 28.1998 10.2916C28.0041 9.99872 27.7259 9.77041 27.4004 9.63559C27.0749 9.50077 26.7168 9.4655 26.3712 9.53423C26.0257 9.60296 25.7083 9.7726 25.4592 10.0217C25.2101 10.2708 25.0405 10.5882 24.9717 10.9337C24.903 11.2793 24.9383 11.6374 25.0731 11.9629C25.2079 12.2884 25.4362 12.5666 25.7291 12.7623C26.0221 12.958 26.3665 13.0625 26.7188 13.0625C27.1912 13.0625 27.6442 12.8748 27.9783 12.5408C28.3123 12.2067 28.5 11.7537 28.5 11.2812Z" fill="white"/>
</svg>
