<svg width="38" height="38" viewBox="0 0 38 38" fill="none" xmlns="http://www.w3.org/2000/svg">
<path d="M29.0304 29.0368H24.8108V22.4232C24.8108 20.8462 24.7792 18.8163 22.61 18.8163C20.4107 18.8163 20.0751 20.5327 20.0751 22.3076V29.0368H15.8539V15.4375H19.9073V17.29H19.9627C20.5295 16.2228 21.907 15.0939 23.9653 15.0939C28.2403 15.0939 29.032 17.9091 29.032 21.5713V29.0368H29.0304ZM11.0881 13.5771C10.766 13.5775 10.4469 13.5143 10.1493 13.3912C9.85161 13.2681 9.58117 13.0874 9.35347 12.8596C9.12577 12.6317 8.94528 12.3612 8.82235 12.0634C8.69942 11.7657 8.63646 11.4466 8.63708 11.1245C8.6374 10.6397 8.78145 10.166 9.05103 9.76306C9.32061 9.36017 9.70361 9.04627 10.1516 8.86105C10.5996 8.67583 11.0924 8.62761 11.5678 8.72249C12.0432 8.81737 12.4798 9.05109 12.8223 9.39409C13.1649 9.73709 13.398 10.174 13.4923 10.6495C13.5866 11.125 13.5377 11.6178 13.3519 12.0655C13.1661 12.5132 12.8517 12.8958 12.4485 13.1649C12.0452 13.434 11.5728 13.5774 11.0881 13.5771ZM13.2034 29.0368H8.97117V15.4375H13.205V29.0368H13.2034ZM31.1442 4.75H6.85425C5.68892 4.75 4.75 5.66833 4.75 6.80358V31.1964C4.75 32.3317 5.6905 33.25 6.85267 33.25H31.1378C32.3 33.25 33.25 32.3317 33.25 31.1964V6.80358C33.25 5.66833 32.3 4.75 31.1378 4.75H31.1442Z" fill="white"/>
</svg>
