<svg width="166" height="47" viewBox="0 0 166 47" fill="none" xmlns="http://www.w3.org/2000/svg">
<g clip-path="url(#clip0_1_3)">
<path d="M0.770838 39.8605L0.69696 39.9884H0.821019C0.804292 39.9467 0.787565 39.9036 0.770838 39.8605ZM12.9718 46.8679C12.9648 46.8679 12.9564 46.8707 12.9495 46.8721C12.4449 46.95 11.9347 46.993 11.4217 47H12.9383L13.0192 46.8596C13.0038 46.8624 12.9871 46.8652 12.9718 46.8679ZM15.1073 20.7066L15.5491 19.9435C15.3777 20.1798 15.2285 20.4356 15.1073 20.7066Z" fill="url(#paint0_linear_1_3)"/>
<path d="M15.5491 19.9435L15.1072 20.7066C15.2271 20.4356 15.3763 20.1798 15.5491 19.9435Z" fill="url(#paint1_linear_1_3)"/>
<path d="M0.770838 39.8605L0.69696 39.9884H0.821019C0.804292 39.9467 0.787565 39.9036 0.770838 39.8605ZM11.4204 47H12.8728L12.9481 46.8721C12.4435 46.95 11.9333 46.993 11.4204 47ZM15.1073 20.7066L15.5491 19.9435C15.3777 20.1798 15.2285 20.4356 15.1073 20.7066Z" fill="url(#paint2_linear_1_3)"/>
<path d="M15.5491 19.9435L15.1072 20.7066C15.2271 20.4356 15.3763 20.1798 15.5491 19.9435Z" fill="url(#paint3_linear_1_3)"/>
<path d="M34.0101 39.9884L29.5635 32.3069L33.6226 25.2953L38.0692 32.9769C39.8729 36.0934 37.6176 39.9884 34.0101 39.9884Z" fill="white"/>
<path d="M13.0192 46.861L12.9383 47.0014H11.4218C11.9347 46.9931 12.4449 46.95 12.9495 46.8735C12.9578 46.8735 12.9648 46.8707 12.9718 46.8693C12.9871 46.8666 13.0038 46.8638 13.0192 46.861Z" fill="url(#paint4_linear_1_3)"/>
<path d="M12.9718 46.868L12.8951 47H11.4218C11.9347 46.9917 12.4449 46.9486 12.9495 46.8721C12.9578 46.8721 12.9648 46.8693 12.9718 46.868Z" fill="url(#paint5_linear_1_3)"/>
<path d="M31.9669 22.4359L27.9078 29.4475L21.8038 39.9884L20.9995 41.3785C20.9995 41.3785 20.9953 41.3869 20.9926 41.391C20.9898 41.3952 20.9884 41.3994 20.9856 41.4035C19.2209 44.4409 16.2463 46.3467 13.0208 46.8596C13.0054 46.8624 12.9887 46.8652 12.9734 46.8679C12.9664 46.8679 12.958 46.8707 12.9511 46.8721C12.4465 46.95 11.9363 46.993 11.4233 47H11.0623C10.6051 46.993 10.1465 46.9583 9.6893 46.893C8.30654 46.6997 6.93632 46.2452 5.65113 45.5098C5.65113 45.5098 5.64694 45.5071 5.64555 45.5057C5.63998 45.5029 5.6344 45.5001 5.62882 45.4973C5.62185 45.4932 5.61488 45.489 5.60792 45.4848C4.32412 44.7425 3.24384 43.7861 2.38518 42.6866C1.73562 41.8581 1.2129 40.949 0.825392 39.9884C0.808665 39.9467 0.791938 39.9036 0.775211 39.8605C-0.420768 36.7982 -0.263255 33.241 1.51259 30.1731L14.9193 7.01156L18.9783 0L21.4135 4.20638L23.036 7.01017L25.4824 11.236L23.9226 13.9314L21.4247 18.2476L21.1096 18.7911C20.481 18.42 19.7478 18.2073 18.9644 18.2073C17.5607 18.2073 16.3174 18.8912 15.5493 19.9435C15.3779 20.1798 15.2287 20.4356 15.1074 20.7066L13.924 22.7487L12.8117 24.6698L7.59146 33.6886C7.23601 34.3044 7.0325 35.0203 7.0325 35.7821C7.0325 37.3445 7.88697 38.7096 9.15682 39.4338C9.77433 39.7855 10.488 39.987 11.2505 39.987C12.7796 39.987 14.1192 39.1752 14.8579 37.9617L14.8621 37.9548L14.9458 37.8102L14.9583 37.7865L20.1172 28.8761L21.2295 26.9564L23.8473 22.4359L26.8568 17.2384L27.9064 15.4243L29.5303 18.2295L29.5414 18.2476L29.5624 18.2851L31.9655 22.4359H31.9669Z" fill="white"/>
<path d="M40.6549 39.4421L43.5473 34.6658C45.174 36.1073 48.6532 37.5502 51.2291 37.5502C53.3075 37.5502 54.1661 36.8746 54.1661 35.8835C54.1661 33.045 41.469 35.839 41.469 27.0968C41.469 23.2671 44.767 19.9323 50.8221 19.9323C54.4825 19.9323 57.5993 21.1042 59.9495 22.8168L57.2829 27.4124C55.9726 26.1502 53.4873 25.0242 50.8667 25.0242C49.24 25.0242 48.111 25.6998 48.111 26.6019C48.111 29.1249 60.8081 26.6464 60.8081 35.5694C60.8081 39.7146 57.1477 42.7797 50.8667 42.7797C46.9805 42.7797 42.959 41.473 40.6549 39.4449V39.4421Z" fill="white"/>
<path d="M65.8235 36.377V26.5088H62.209V20.4703H65.8235V14.5222H72.7373V20.4703H77.1658V26.5088H72.7373V34.4392C72.7373 35.7014 73.4607 36.6467 74.6804 36.6467C75.4485 36.6467 76.2165 36.3756 76.4423 36.1059L77.7986 41.3326C76.9399 42.143 75.2226 42.7741 72.6467 42.7741C68.2182 42.7741 65.8235 40.5667 65.8235 36.3756V36.377Z" fill="white"/>
<path d="M80.6436 42.2362V20.4703H87.602V23.1295C89.0475 21.3725 91.8046 19.8851 94.4252 19.8851V26.5547C94.0182 26.4643 93.4313 26.374 92.7079 26.374C90.9 26.374 88.5052 27.1399 87.602 28.3562V42.2348H80.6436V42.2362Z" fill="white"/>
<path d="M110.466 42.2362V40.0732C109.11 41.6955 106.49 42.7769 103.688 42.7769C100.344 42.7769 96.1871 40.5236 96.1871 35.6125C96.1871 30.3399 100.344 28.6273 103.688 28.6273C106.58 28.6273 109.155 29.5281 110.466 31.1503V28.537C110.466 26.6437 108.84 25.3829 106.038 25.3829C103.869 25.3829 101.609 26.1933 99.8475 27.6807L97.3622 23.3103C100.164 20.9221 103.914 19.931 107.258 19.931C112.499 19.931 117.425 21.8687 117.425 28.6273V42.2362H110.466ZM110.466 36.6481V34.7103C109.743 33.7192 108.116 33.1784 106.58 33.1784C104.728 33.1784 103.101 33.9902 103.101 35.7014C103.101 37.4126 104.728 38.2244 106.58 38.2244C108.116 38.2244 109.743 37.6837 110.466 36.6467V36.6481Z" fill="white"/>
<path d="M128.09 42.2362L119.505 20.4717H126.825L131.75 34.2599L136.721 20.4717H144.086L135.501 42.2362H128.091H128.09Z" fill="white"/>
<path d="M159.042 42.2362V40.0732C157.685 41.6955 155.065 42.7769 152.263 42.7769C148.919 42.7769 144.762 40.5236 144.762 35.6125C144.762 30.3399 148.919 28.6273 152.263 28.6273C155.155 28.6273 157.73 29.5281 159.042 31.1503V28.537C159.042 26.6437 157.415 25.3829 154.613 25.3829C152.444 25.3829 150.185 26.1933 148.423 27.6807L145.937 23.3103C148.739 20.9221 152.489 19.931 155.833 19.931C161.074 19.931 166 21.8687 166 28.6273V42.2362H159.042ZM159.042 36.6481V34.7103C158.318 33.7192 156.691 33.1784 155.155 33.1784C153.303 33.1784 151.676 33.9902 151.676 35.7014C151.676 37.4126 153.303 38.2244 155.155 38.2244C156.691 38.2244 158.318 37.6837 159.042 36.6467V36.6481Z" fill="white"/>
</g>
<defs>
<linearGradient id="paint0_linear_1_3" x1="-1.76051" y1="2.52995" x2="17.5996" y2="56.5685" gradientUnits="userSpaceOnUse">
<stop stop-color="#7A2A90"/>
<stop offset="1" stop-color="#26489E"/>
</linearGradient>
<linearGradient id="paint1_linear_1_3" x1="7.69717" y1="-0.857698" x2="27.0573" y2="53.1809" gradientUnits="userSpaceOnUse">
<stop stop-color="#7A2A90"/>
<stop offset="1" stop-color="#26489E"/>
</linearGradient>
<linearGradient id="paint2_linear_1_3" x1="1.39366e-06" y1="2.52995" x2="17.6065" y2="56.5632" gradientUnits="userSpaceOnUse">
<stop stop-color="#7A2A90"/>
<stop offset="1" stop-color="#26489E"/>
</linearGradient>
<linearGradient id="paint3_linear_1_3" x1="7.69717" y1="-0.857698" x2="27.0573" y2="53.1809" gradientUnits="userSpaceOnUse">
<stop stop-color="#7A2A90"/>
<stop offset="1" stop-color="#26489E"/>
</linearGradient>
<linearGradient id="paint4_linear_1_3" x1="-3.54472" y1="3.16896" x2="15.8171" y2="57.2079" gradientUnits="userSpaceOnUse">
<stop stop-color="#7A2A90"/>
<stop offset="1" stop-color="#26489E"/>
</linearGradient>
<linearGradient id="paint5_linear_1_3" x1="-3.56701" y1="3.17856" x2="15.7939" y2="57.2163" gradientUnits="userSpaceOnUse">
<stop stop-color="#7A2A90"/>
<stop offset="1" stop-color="#26489E"/>
</linearGradient>
<clipPath id="clip0_1_3">
<rect width="166" height="47" fill="white"/>
</clipPath>
</defs>
</svg>
