<svg width="19" height="18" viewBox="0 0 19 18" fill="none" xmlns="http://www.w3.org/2000/svg">
<path fill-rule="evenodd" clip-rule="evenodd" d="M15.5 1C15.5 0.734784 15.3946 0.48043 15.2071 0.292893C15.0196 0.105357 14.7652 0 14.5 0C14.2348 0 13.9804 0.105357 13.7929 0.292893C13.6054 0.48043 13.5 0.734784 13.5 1V2H1.5C1.23478 2 0.98043 2.10536 0.792893 2.29289C0.605357 2.48043 0.5 2.73478 0.5 3C0.5 3.26522 0.605357 3.51957 0.792893 3.70711C0.98043 3.89464 1.23478 4 1.5 4H13.5V5C13.5 5.26522 13.6054 5.51957 13.7929 5.70711C13.9804 5.89464 14.2348 6 14.5 6C14.7652 6 15.0196 5.89464 15.2071 5.70711C15.3946 5.51957 15.5 5.26522 15.5 5V4H17.5C17.7652 4 18.0196 3.89464 18.2071 3.70711C18.3946 3.51957 18.5 3.26522 18.5 3C18.5 2.73478 18.3946 2.48043 18.2071 2.29289C18.0196 2.10536 17.7652 2 17.5 2H15.5V1ZM1.5 8C1.23478 8 0.98043 8.10536 0.792893 8.29289C0.605357 8.48043 0.5 8.73478 0.5 9C0.5 9.26522 0.605357 9.51957 0.792893 9.70711C0.98043 9.89464 1.23478 10 1.5 10H3.5V11C3.5 11.2652 3.60536 11.5196 3.79289 11.7071C3.98043 11.8946 4.23478 12 4.5 12C4.76522 12 5.01957 11.8946 5.20711 11.7071C5.39464 11.5196 5.5 11.2652 5.5 11V10H17.5C17.7652 10 18.0196 9.89464 18.2071 9.70711C18.3946 9.51957 18.5 9.26522 18.5 9C18.5 8.73478 18.3946 8.48043 18.2071 8.29289C18.0196 8.10536 17.7652 8 17.5 8H5.5V7C5.5 6.73478 5.39464 6.48043 5.20711 6.29289C5.01957 6.10536 4.76522 6 4.5 6C4.23478 6 3.98043 6.10536 3.79289 6.29289C3.60536 6.48043 3.5 6.73478 3.5 7V8H1.5ZM0.5 15C0.5 14.7348 0.605357 14.4804 0.792893 14.2929C0.98043 14.1054 1.23478 14 1.5 14H13.5V13C13.5 12.7348 13.6054 12.4804 13.7929 12.2929C13.9804 12.1054 14.2348 12 14.5 12C14.7652 12 15.0196 12.1054 15.2071 12.2929C15.3946 12.4804 15.5 12.7348 15.5 13V14H17.5C17.7652 14 18.0196 14.1054 18.2071 14.2929C18.3946 14.4804 18.5 14.7348 18.5 15C18.5 15.2652 18.3946 15.5196 18.2071 15.7071C18.0196 15.8946 17.7652 16 17.5 16H15.5V17C15.5 17.2652 15.3946 17.5196 15.2071 17.7071C15.0196 17.8946 14.7652 18 14.5 18C14.2348 18 13.9804 17.8946 13.7929 17.7071C13.6054 17.5196 13.5 17.2652 13.5 17V16H1.5C1.23478 16 0.98043 15.8946 0.792893 15.7071C0.605357 15.5196 0.5 15.2652 0.5 15Z" fill="white"/>
</svg>
