<svg width="29" height="28" viewBox="0 0 29 28" fill="none" xmlns="http://www.w3.org/2000/svg">
<path d="M6.33333 11.6667C5.05 11.6667 4 12.7167 4 14C4 15.2833 5.05 16.3333 6.33333 16.3333C7.61667 16.3333 8.66667 15.2833 8.66667 14C8.66667 12.7167 7.61667 11.6667 6.33333 11.6667ZM22.6667 11.6667C21.3833 11.6667 20.3333 12.7167 20.3333 14C20.3333 15.2833 21.3833 16.3333 22.6667 16.3333C23.95 16.3333 25 15.2833 25 14C25 12.7167 23.95 11.6667 22.6667 11.6667ZM14.5 11.6667C13.2167 11.6667 12.1667 12.7167 12.1667 14C12.1667 15.2833 13.2167 16.3333 14.5 16.3333C15.7833 16.3333 16.8333 15.2833 16.8333 14C16.8333 12.7167 15.7833 11.6667 14.5 11.6667Z" fill="#4C4F64"/>
</svg>
