<svg width="12" height="12" viewBox="0 0 12 12" fill="none" xmlns="http://www.w3.org/2000/svg">
<path d="M5.41675 7.74984H6.58342V8.9165H5.41675V7.74984ZM5.41675 3.08317H6.58342V6.58317H5.41675V3.08317ZM6.00008 0.166504C2.77425 0.166504 0.166748 2.7915 0.166748 5.99984C0.166748 7.54693 0.78133 9.03067 1.87529 10.1246C2.41697 10.6663 3.06003 11.096 3.76776 11.3891C4.47549 11.6823 5.23404 11.8332 6.00008 11.8332C7.54718 11.8332 9.03091 11.2186 10.1249 10.1246C11.2188 9.03067 11.8334 7.54693 11.8334 5.99984C11.8334 5.23379 11.6825 4.47525 11.3894 3.76752C11.0962 3.05978 10.6665 2.41672 10.1249 1.87505C9.5832 1.33337 8.94014 0.903692 8.2324 0.61054C7.52467 0.317388 6.76613 0.166504 6.00008 0.166504ZM6.00008 10.6665C4.7624 10.6665 3.57542 10.1748 2.70025 9.29967C1.82508 8.4245 1.33341 7.23751 1.33341 5.99984C1.33341 4.76216 1.82508 3.57518 2.70025 2.70001C3.57542 1.82484 4.7624 1.33317 6.00008 1.33317C7.23776 1.33317 8.42474 1.82484 9.29991 2.70001C10.1751 3.57518 10.6667 4.76216 10.6667 5.99984C10.6667 7.23751 10.1751 8.4245 9.29991 9.29967C8.42474 10.1748 7.23776 10.6665 6.00008 10.6665Z" fill="white"/>
</svg>
