<svg width="28" height="28" viewBox="0 0 28 28" fill="none" xmlns="http://www.w3.org/2000/svg">
<path d="M4.375 22.75C4.375 23.6783 4.74375 24.5685 5.40013 25.2249C6.0565 25.8813 6.94674 26.25 7.875 26.25H12.9062C12.9643 26.25 13.0199 26.227 13.0609 26.1859C13.102 26.1449 13.125 26.0893 13.125 26.0313V15.9688C13.125 15.9107 13.102 15.8551 13.0609 15.8141C13.0199 15.7731 12.9643 15.75 12.9062 15.75H4.8125C4.69647 15.75 4.58519 15.7961 4.50314 15.8781C4.42109 15.9602 4.375 16.0715 4.375 16.1875V22.75ZM13.125 13.7813V7.875H14.875V13.7813C14.875 13.8393 14.898 13.8949 14.9391 13.9359C14.9801 13.977 15.0357 14 15.0938 14H22.75C23.0481 14 23.344 13.9491 23.625 13.8496C24.1363 13.6681 24.579 13.3328 24.8923 12.8898C25.2056 12.4467 25.3742 11.9176 25.375 11.375V10.5C25.375 9.80381 25.0984 9.13613 24.6062 8.64385C24.1139 8.15157 23.4462 7.875 22.75 7.875H20.533C20.5139 7.8747 20.4953 7.86942 20.4789 7.8597C20.4625 7.84998 20.4489 7.83614 20.4396 7.81957C20.4302 7.80299 20.4253 7.78425 20.4253 7.76519C20.4254 7.74614 20.4305 7.72744 20.44 7.71094C20.9463 6.85611 21.1108 5.84148 20.9004 4.87049C20.69 3.8995 20.1203 3.04394 19.3055 2.47536C18.4908 1.90678 17.4912 1.66722 16.5073 1.80471C15.5233 1.94221 14.6277 2.44659 14 3.21672C13.3723 2.44659 12.4767 1.94221 11.4927 1.80471C10.5088 1.66722 9.50921 1.90678 8.69446 2.47536C7.87972 3.04394 7.31003 3.8995 7.09964 4.87049C6.88924 5.84148 7.05368 6.85611 7.56 7.71094C7.56953 7.72744 7.57458 7.74614 7.57466 7.76519C7.57474 7.78425 7.56984 7.80299 7.56044 7.81957C7.55105 7.83614 7.53749 7.84998 7.52111 7.8597C7.50472 7.86942 7.48608 7.8747 7.46703 7.875H5.25C4.55381 7.875 3.88613 8.15157 3.39384 8.64385C2.90156 9.13613 2.625 9.80381 2.625 10.5V11.375C2.62577 11.9176 2.79437 12.4467 3.10767 12.8898C3.42098 13.3328 3.86365 13.6681 4.375 13.8496C4.65599 13.9491 4.9519 14 5.25 14H12.9062C12.9643 14 13.0199 13.977 13.0609 13.9359C13.102 13.8949 13.125 13.8393 13.125 13.7813ZM14.875 5.6875C14.875 5.25486 15.0033 4.83193 15.2437 4.47219C15.484 4.11246 15.8257 3.83208 16.2254 3.66652C16.6251 3.50095 17.0649 3.45763 17.4893 3.54204C17.9136 3.62644 18.3034 3.83478 18.6093 4.14071C18.9152 4.44664 19.1236 4.83641 19.208 5.26074C19.2924 5.68508 19.2491 6.12491 19.0835 6.52462C18.9179 6.92434 18.6375 7.26598 18.2778 7.50634C17.9181 7.74671 17.4951 7.875 17.0625 7.875H14.875V5.6875ZM10.7811 3.50547C11.0808 3.48399 11.3817 3.52447 11.665 3.6244C11.9484 3.72433 12.2081 3.88155 12.428 4.08628C12.6479 4.291 12.8233 4.53883 12.9432 4.81432C13.0631 5.08981 13.125 5.38705 13.125 5.6875V7.875H10.9375C10.3719 7.87355 9.82878 7.65305 9.42222 7.25978C9.01567 6.86651 8.77725 6.33105 8.75701 5.76577C8.73678 5.20049 8.93629 4.64935 9.31369 4.22802C9.69108 3.80668 10.217 3.54791 10.7811 3.50602V3.50547ZM15.0938 26.25H20.125C21.0533 26.25 21.9435 25.8813 22.5999 25.2249C23.2563 24.5685 23.625 23.6783 23.625 22.75V16.1875C23.625 16.0715 23.5789 15.9602 23.4969 15.8781C23.4148 15.7961 23.3035 15.75 23.1875 15.75H15.0938C15.0357 15.75 14.9801 15.7731 14.9391 15.8141C14.898 15.8551 14.875 15.9107 14.875 15.9688V26.0313C14.875 26.0893 14.898 26.1449 14.9391 26.1859C14.9801 26.227 15.0357 26.25 15.0938 26.25Z" fill="#4C4F64"/>
</svg>
