<svg width="29" height="29" viewBox="0 0 29 29" fill="none" xmlns="http://www.w3.org/2000/svg">
<path d="M21.75 19.4298C20.8317 19.4298 20.01 19.7923 19.3817 20.3603L10.7663 15.3457C10.8267 15.0678 10.875 14.7898 10.875 14.4998C10.875 14.2098 10.8267 13.9319 10.7663 13.654L19.285 8.68775C19.9375 9.29192 20.7954 9.6665 21.75 9.6665C23.7558 9.6665 25.375 8.04734 25.375 6.0415C25.375 4.03567 23.7558 2.4165 21.75 2.4165C19.7442 2.4165 18.125 4.03567 18.125 6.0415C18.125 6.3315 18.1733 6.60942 18.2338 6.88734L9.715 11.8536C9.0625 11.2494 8.20458 10.8748 7.25 10.8748C5.24417 10.8748 3.625 12.494 3.625 14.4998C3.625 16.5057 5.24417 18.1248 7.25 18.1248C8.20458 18.1248 9.0625 17.7503 9.715 17.1461L18.3183 22.1728C18.2579 22.4265 18.2217 22.6923 18.2217 22.9582C18.2217 24.9036 19.8046 26.4865 21.75 26.4865C23.6954 26.4865 25.2783 24.9036 25.2783 22.9582C25.2783 21.0128 23.6954 19.4298 21.75 19.4298Z" fill="#5C5C5C"/>
<path d="M21.75 19.4298C20.8317 19.4298 20.01 19.7923 19.3817 20.3603L10.7663 15.3457C10.8267 15.0678 10.875 14.7898 10.875 14.4998C10.875 14.2098 10.8267 13.9319 10.7663 13.654L19.285 8.68775C19.9375 9.29192 20.7954 9.6665 21.75 9.6665C23.7558 9.6665 25.375 8.04734 25.375 6.0415C25.375 4.03567 23.7558 2.4165 21.75 2.4165C19.7442 2.4165 18.125 4.03567 18.125 6.0415C18.125 6.3315 18.1733 6.60942 18.2338 6.88734L9.715 11.8536C9.0625 11.2494 8.20458 10.8748 7.25 10.8748C5.24417 10.8748 3.625 12.494 3.625 14.4998C3.625 16.5057 5.24417 18.1248 7.25 18.1248C8.20458 18.1248 9.0625 17.7503 9.715 17.1461L18.3183 22.1728C18.2579 22.4265 18.2217 22.6923 18.2217 22.9582C18.2217 24.9036 19.8046 26.4865 21.75 26.4865C23.6954 26.4865 25.2783 24.9036 25.2783 22.9582C25.2783 21.0128 23.6954 19.4298 21.75 19.4298Z" fill="#E5E5E5"/>
</svg>
