<svg width="28" height="28" viewBox="0 0 28 28" fill="none" xmlns="http://www.w3.org/2000/svg">
<path fill-rule="evenodd" clip-rule="evenodd" d="M2.33333 14.5833V13.4167C2.33333 9.58182 2.33333 7.66382 3.39267 6.37232C3.58644 6.13625 3.80292 5.91976 4.039 5.72599C5.33167 4.66666 7.24733 4.66666 11.0833 4.66666C14.9182 4.66666 16.8362 4.66666 18.1277 5.72599C18.3637 5.91976 18.5802 6.13625 18.774 6.37232C19.593 7.36982 19.7785 8.74182 19.8205 11.0833L20.6022 10.6983C22.8713 9.56432 24.0065 8.99616 24.8372 9.50949C25.6667 10.0228 25.6667 11.2922 25.6667 13.8297V14.1703C25.6667 16.7078 25.6667 17.9772 24.8372 18.4905C24.0065 19.0038 22.8713 18.4357 20.6022 17.3005L19.8205 16.9167C19.7785 19.2582 19.593 20.6302 18.774 21.6277C18.5802 21.8637 18.3637 22.0802 18.1277 22.274C16.835 23.3333 14.9193 23.3333 11.0833 23.3333C7.2485 23.3333 5.3305 23.3333 4.039 22.274C3.80292 22.0802 3.58644 21.8637 3.39267 21.6277C2.33333 20.335 2.33333 18.4193 2.33333 14.5833ZM11.7553 9.35666C11.6732 9.25818 11.5705 9.17896 11.4543 9.1246C11.3382 9.07023 11.2116 9.04205 11.0833 9.04205C10.9551 9.04205 10.8285 9.07023 10.7123 9.1246C10.5962 9.17896 10.4935 9.25818 10.4113 9.35666L7.49467 12.8567C7.41784 12.9445 7.35936 13.0468 7.32265 13.1575C7.28595 13.2683 7.27176 13.3852 7.28093 13.5015C7.2901 13.6179 7.32243 13.7312 7.37604 13.8348C7.42964 13.9384 7.50343 14.0303 7.59306 14.105C7.68269 14.1797 7.78636 14.2357 7.89796 14.2697C8.00955 14.3038 8.12683 14.3151 8.24289 14.3032C8.35895 14.2912 8.47145 14.2562 8.57376 14.2001C8.67608 14.144 8.76615 14.0681 8.83867 13.9767L10.2083 12.3328V18.0833C10.2083 18.3154 10.3005 18.5379 10.4646 18.702C10.6287 18.8661 10.8513 18.9583 11.0833 18.9583C11.3154 18.9583 11.538 18.8661 11.7021 18.702C11.8661 18.5379 11.9583 18.3154 11.9583 18.0833V12.334L13.328 13.9767C13.4784 14.1486 13.6901 14.2549 13.9178 14.2728C14.1455 14.2908 14.3712 14.219 14.5467 14.0727C14.7222 13.9265 14.8335 13.7174 14.8569 13.4902C14.8804 13.263 14.814 13.0356 14.672 12.8567L11.7553 9.35666Z" fill="#4C4F64"/>
</svg>
