<svg width="28" height="28" viewBox="0 0 28 28" fill="none" xmlns="http://www.w3.org/2000/svg">
<path d="M12.558 7H12.5668L9.72825 9.625L3.5 9.62325V8.75C3.5 7.82174 3.86875 6.9315 4.52513 6.27513C5.1815 5.61875 6.07174 5.25 7 5.25H10.0713C10.2704 5.24996 10.4636 5.31786 10.619 5.4425L12.558 7ZM3.5 19.25V11.3732L10.0713 11.375C10.2918 11.3752 10.5043 11.2921 10.6663 11.1422L15.141 7H20.9948C21.923 7 22.8132 7.36875 23.4696 8.02513C24.126 8.6815 24.4948 9.57174 24.4948 10.5V15.5417L23.7283 14.777C23.3685 14.4179 22.9122 14.171 22.4148 14.0662C21.9175 13.9614 21.4003 14.0033 20.9263 14.1868C20.4523 14.3702 20.0417 14.6874 19.7444 15.0997C19.4472 15.512 19.276 16.0018 19.2518 16.5095C19.2281 16.0015 19.0574 15.5113 18.7604 15.0984C18.4634 14.6856 18.0529 14.3679 17.5787 14.1841C17.1045 14.0002 16.5872 13.958 16.0895 14.0626C15.5918 14.1673 15.1352 14.4142 14.7753 14.7735L11.27 18.2735C11.0255 18.5173 10.8316 18.807 10.6993 19.1259C10.5669 19.4448 10.4988 19.7867 10.4988 20.132C10.4988 20.4773 10.5669 20.8192 10.6993 21.1381C10.8316 21.457 11.0255 21.7467 11.27 21.9905L12.033 22.75H7C6.07174 22.75 5.1815 22.3812 4.52513 21.7249C3.86875 21.0685 3.5 20.1783 3.5 19.25ZM15.2425 21.0035L17.248 23.0055C17.4076 23.1703 17.4962 23.3912 17.4945 23.6206C17.4928 23.8501 17.4011 24.0697 17.2391 24.2321C17.0771 24.3946 16.8578 24.4869 16.6283 24.4893C16.3989 24.4916 16.1777 24.4037 16.0125 24.2445L12.5073 20.7497C12.4258 20.6685 12.3611 20.5719 12.317 20.4656C12.2729 20.3593 12.2502 20.2453 12.2502 20.1302C12.2502 20.0152 12.2729 19.9012 12.317 19.7949C12.3611 19.6886 12.4258 19.592 12.5073 19.5107L16.0125 16.0142C16.1777 15.8551 16.3989 15.7672 16.6283 15.7695C16.8578 15.7718 17.0771 15.8641 17.2391 16.0266C17.4011 16.1891 17.4928 16.4087 17.4945 16.6381C17.4962 16.8675 17.4076 17.0885 17.248 17.2532L15.2425 19.2535H23.2593L21.2555 17.2515C21.1719 17.1708 21.1053 17.0742 21.0594 16.9675C21.0136 16.8607 20.9894 16.7459 20.9884 16.6297C20.9874 16.5135 21.0095 16.3983 21.0535 16.2908C21.0975 16.1833 21.1625 16.0856 21.2447 16.0034C21.3268 15.9212 21.4245 15.8563 21.532 15.8123C21.6396 15.7683 21.7548 15.7461 21.871 15.7472C21.9872 15.7482 22.102 15.7723 22.2087 15.8182C22.3155 15.864 22.412 15.9307 22.4928 16.0142L25.9928 19.5125C26.1568 19.6766 26.2489 19.8991 26.2489 20.1311C26.2489 20.3631 26.1568 20.5857 25.9928 20.7497L22.4928 24.2445C22.4119 24.3279 22.3153 24.3945 22.2085 24.4402C22.1016 24.4859 21.9868 24.5098 21.8706 24.5107C21.7544 24.5115 21.6392 24.4892 21.5318 24.4451C21.4243 24.4009 21.3267 24.3358 21.2447 24.2535C21.1626 24.1713 21.0978 24.0735 21.054 23.9659C21.0101 23.8583 20.9881 23.7431 20.9893 23.6269C20.9905 23.5107 21.0148 23.3959 21.0608 23.2892C21.1068 23.1826 21.1736 23.0861 21.2573 23.0055L23.2628 21.0035H15.2425Z" fill="#1262D9"/>
</svg>
