<svg width="38" height="38" viewBox="0 0 38 38" fill="none" xmlns="http://www.w3.org/2000/svg">
<path d="M35.5617 9.49967C34.3425 10.0538 33.0283 10.418 31.6667 10.5922C33.06 9.75301 34.1367 8.42301 34.6433 6.82384C33.3292 7.61551 31.8725 8.16967 30.3367 8.48634C29.0858 7.12467 27.3283 6.33301 25.3333 6.33301C21.6125 6.33301 18.5725 9.37301 18.5725 13.1255C18.5725 13.6638 18.6358 14.1863 18.7467 14.6772C13.11 14.3922 8.09082 11.6847 4.74999 7.58384C4.16416 8.58134 3.83166 9.75301 3.83166 10.988C3.83166 13.3472 5.01916 15.4372 6.85582 16.6247C5.73166 16.6247 4.68666 16.308 3.76832 15.833V15.8805C3.76832 19.1738 6.11166 21.9288 9.21499 22.5463C8.21864 22.819 7.17264 22.8569 6.15916 22.6572C6.5892 24.0069 7.43142 25.188 8.56743 26.0343C9.70344 26.8806 11.0761 27.3497 12.4925 27.3755C10.0916 29.2762 7.11549 30.3036 4.05332 30.2888C3.51499 30.2888 2.97666 30.2572 2.43832 30.1938C5.44666 32.1255 9.02499 33.2497 12.8567 33.2497C25.3333 33.2497 32.1892 22.8947 32.1892 13.9172C32.1892 13.6163 32.1892 13.3313 32.1733 13.0305C33.5033 12.0805 34.6433 10.8772 35.5617 9.49967Z" fill="white"/>
</svg>
