<svg width="28" height="30" viewBox="0 0 28 30" fill="none" xmlns="http://www.w3.org/2000/svg">
<path d="M4.42499 25.0505L4.38405 25.1213H4.4528C4.44353 25.0982 4.43426 25.0744 4.42499 25.0505ZM11.187 28.9269C11.1831 28.9269 11.1785 28.9285 11.1746 28.9293C10.8949 28.9723 10.6122 28.9962 10.3279 29H11.1684L11.2132 28.9223C11.2047 28.9239 11.1955 28.9254 11.187 28.9269ZM12.3705 14.4547L12.6154 14.0326C12.5204 14.1633 12.4377 14.3048 12.3705 14.4547Z" fill="url(#paint0_linear_611_27135)"/>
<path d="M12.6154 14.0326L12.3705 14.4547C12.4369 14.3048 12.5196 14.1633 12.6154 14.0326Z" fill="url(#paint1_linear_611_27135)"/>
<path d="M4.42499 25.0505L4.38405 25.1213H4.4528C4.44353 25.0982 4.43426 25.0744 4.42499 25.0505ZM10.3271 29H11.1321L11.1738 28.9293C10.8942 28.9723 10.6114 28.9962 10.3271 29ZM12.3705 14.4547L12.6154 14.0326C12.5204 14.1633 12.4377 14.3048 12.3705 14.4547Z" fill="url(#paint2_linear_611_27135)"/>
<path d="M12.6154 14.0326L12.3705 14.4547C12.4369 14.3048 12.5196 14.1633 12.6154 14.0326Z" fill="url(#paint3_linear_611_27135)"/>
<path d="M22.8468 25.1213L20.3824 20.8719L22.632 16.9931L25.0964 21.2425C26.096 22.9666 24.8461 25.1213 22.8468 25.1213Z" fill="white"/>
<path d="M11.2132 28.9231L11.1684 29.0008H10.3279C10.6122 28.9961 10.8949 28.9723 11.1746 28.93C11.1792 28.93 11.1831 28.9285 11.187 28.9277C11.1955 28.9262 11.2047 28.9246 11.2132 28.9231Z" fill="url(#paint4_linear_611_27135)"/>
<path d="M11.187 28.9269L11.1445 29H10.3279C10.6122 28.9954 10.8949 28.9715 11.1746 28.9292C11.1792 28.9292 11.1831 28.9277 11.187 28.9269Z" fill="url(#paint5_linear_611_27135)"/>
<path d="M21.7143 15.4113L19.4647 19.2901L16.0818 25.1213L15.636 25.8902C15.636 25.8902 15.6337 25.8949 15.6322 25.8972C15.6306 25.8995 15.6298 25.9018 15.6283 25.9041C14.6503 27.5843 13.0017 28.6386 11.2141 28.9223C11.2056 28.9239 11.1963 28.9254 11.1878 28.9269C11.1839 28.9269 11.1793 28.9285 11.1754 28.9293C10.8958 28.9723 10.613 28.9962 10.3287 29H10.1287C9.87526 28.9962 9.6211 28.9769 9.36771 28.9408C8.60136 28.8339 7.84196 28.5824 7.12968 28.1757C7.12968 28.1757 7.12737 28.1741 7.12659 28.1733C7.1235 28.1718 7.12041 28.1703 7.11732 28.1687C7.11346 28.1664 7.1096 28.1641 7.10573 28.1618C6.39423 27.7512 5.79552 27.2221 5.31964 26.6139C4.95964 26.1555 4.66994 25.6526 4.45518 25.1213C4.44591 25.0982 4.43664 25.0744 4.42737 25.0505C3.76454 23.3565 3.85183 21.3886 4.83604 19.6915L12.2662 6.87874L14.5159 3L15.8655 5.32694L16.7647 6.87797L18.1205 9.21567L17.256 10.7067L15.8716 13.0944L15.6971 13.3951C15.3486 13.1898 14.9423 13.0721 14.5081 13.0721C13.7302 13.0721 13.0411 13.4504 12.6154 14.0326C12.5204 14.1633 12.4377 14.3048 12.3705 14.4547L11.7147 15.5844L11.0982 16.6471L8.20505 21.6362C8.00805 21.9769 7.89526 22.3729 7.89526 22.7943C7.89526 23.6587 8.36882 24.4138 9.0726 24.8144C9.41483 25.009 9.81037 25.1205 10.2329 25.1205C11.0804 25.1205 11.8228 24.6714 12.2323 24.0001L12.2346 23.9962L12.2809 23.9163L12.2879 23.9032L15.147 18.974L15.7635 17.9121L17.2143 15.4113L18.8822 12.5361L19.4639 11.5326L20.3639 13.0844L20.3701 13.0944L20.3817 13.1152L21.7135 15.4113H21.7143Z" fill="white"/>
<defs>
<linearGradient id="paint0_linear_611_27135" x1="3.02208" y1="4.39954" x2="13.7166" y2="34.3058" gradientUnits="userSpaceOnUse">
<stop stop-color="#7A2A90"/>
<stop offset="1" stop-color="#26489E"/>
</linearGradient>
<linearGradient id="paint1_linear_611_27135" x1="8.2637" y1="2.52553" x2="18.9582" y2="32.4318" gradientUnits="userSpaceOnUse">
<stop stop-color="#7A2A90"/>
<stop offset="1" stop-color="#26489E"/>
</linearGradient>
<linearGradient id="paint2_linear_611_27135" x1="3.99778" y1="4.39954" x2="13.723" y2="34.3009" gradientUnits="userSpaceOnUse">
<stop stop-color="#7A2A90"/>
<stop offset="1" stop-color="#26489E"/>
</linearGradient>
<linearGradient id="paint3_linear_611_27135" x1="8.2637" y1="2.52553" x2="18.9582" y2="32.4318" gradientUnits="userSpaceOnUse">
<stop stop-color="#7A2A90"/>
<stop offset="1" stop-color="#26489E"/>
</linearGradient>
<linearGradient id="paint4_linear_611_27135" x1="2.03324" y1="4.75304" x2="12.7287" y2="34.6595" gradientUnits="userSpaceOnUse">
<stop stop-color="#7A2A90"/>
<stop offset="1" stop-color="#26489E"/>
</linearGradient>
<linearGradient id="paint5_linear_611_27135" x1="2.02088" y1="4.75834" x2="12.7158" y2="34.6642" gradientUnits="userSpaceOnUse">
<stop stop-color="#7A2A90"/>
<stop offset="1" stop-color="#26489E"/>
</linearGradient>
</defs>
</svg>
